<svg width="25" height="24" viewBox="0 0 25 24" fill="none" xmlns="http://www.w3.org/2000/svg">
<path d="M20.55 10.6301L15.88 8.62006L14.84 8.18006C14.68 8.10006 14.54 7.89006 14.54 7.71006V4.65006C14.54 3.69006 13.83 2.55006 12.97 2.11006C12.67 1.96006 12.31 1.96006 12.01 2.11006C11.16 2.55006 10.45 3.70006 10.45 4.66006V7.72006C10.45 7.90006 10.31 8.11006 10.15 8.19006L4.45 10.6401C3.82 10.9001 3.31 11.6901 3.31 12.3701V13.6901C3.31 14.5401 3.95 14.9601 4.74 14.6201L9.75 12.4601C10.14 12.2901 10.46 12.5001 10.46 12.9301V14.0401V15.8401C10.46 16.0701 10.33 16.4001 10.17 16.5601L7.85 18.8901C7.61 19.1301 7.5 19.6001 7.61 19.9401L8.06 21.3001C8.24 21.8901 8.91 22.1701 9.46 21.8901L11.84 19.8901C12.2 19.5801 12.79 19.5801 13.15 19.8901L15.53 21.8901C16.08 22.1601 16.75 21.8901 16.95 21.3001L17.4 19.9401C17.51 19.6101 17.4 19.1301 17.16 18.8901L14.84 16.5601C14.67 16.4001 14.54 16.0701 14.54 15.8401V12.9301C14.54 12.5001 14.85 12.3001 15.25 12.4601L20.26 14.6201C21.05 14.9601 21.69 14.5401 21.69 13.6901V12.3701C21.69 11.6901 21.18 10.9001 20.55 10.6301Z" fill="#292D32"/>
</svg>
