<svg width="17" height="16" viewBox="0 0 17 16" fill="none" xmlns="http://www.w3.org/2000/svg">
<path d="M8.58191 1.5C4.99753 1.5 2.08191 4.41563 2.08191 8C2.08191 11.5844 4.99753 14.5 8.58191 14.5C12.1663 14.5 15.0819 11.5844 15.0819 8C15.0819 4.41563 12.1663 1.5 8.58191 1.5ZM12.8803 4.49687C13.6538 5.44219 14.1225 6.64531 14.1335 7.95625C13.9507 7.91719 12.1147 7.54531 10.2678 7.77812C10.2288 7.68281 10.1897 7.5875 10.1491 7.49219C10.0335 7.22188 9.91004 6.95156 9.78035 6.6875C11.8319 5.84844 12.7632 4.65625 12.8803 4.49687ZM8.58191 2.45625C9.99285 2.45625 11.2819 2.98594 12.2616 3.85469C12.1616 3.99688 11.3257 5.12031 9.35222 5.86094C8.44285 4.18906 7.43504 2.81719 7.28035 2.61094C7.70691 2.50781 8.14285 2.45625 8.58191 2.45625ZM6.22097 2.98438C6.36785 3.18438 7.36003 4.56094 8.27879 6.19531C5.68191 6.88438 3.39441 6.875 3.14597 6.87187C3.50691 5.14844 4.66785 3.71719 6.22097 2.98438ZM3.03035 8.00781C3.03035 7.95156 3.03191 7.89375 3.03347 7.8375C3.27566 7.84219 5.96628 7.87656 8.73972 7.04688C8.8991 7.35781 9.05066 7.67344 9.18972 7.98906C9.11629 8.00937 9.04285 8.03125 8.97097 8.05469C6.10691 8.98281 4.58347 11.5062 4.45691 11.7203C3.57097 10.7359 3.03035 9.43437 3.03035 8.00781ZM8.58191 13.5594C7.29753 13.5594 6.11472 13.1219 5.1741 12.3875C5.2741 12.1828 6.39753 10.0125 9.52878 8.92031L9.56472 8.90781C10.3444 10.9328 10.6663 12.6312 10.7491 13.1187C10.0642 13.4115 9.32676 13.5614 8.58191 13.5594ZM11.6835 12.6109C11.6272 12.2734 11.3319 10.6484 10.6053 8.65312C12.346 8.375 13.8741 8.83125 14.0632 8.89062C13.8163 10.4344 12.9303 11.7687 11.6835 12.6109Z" fill="#333333"/>
</svg>
